<svg height="512pt" viewBox="0 0 512 512" width="512pt" xmlns="http://www.w3.org/2000/svg"><path d="m213.332031 512c38.636719 0 70.957031-27.542969 78.378907-64h-156.757813c7.425781 36.457031 39.746094 64 78.378906 64zm0 0"/><path d="m374.953125 309.246094c-.554687 0-1.066406.085937-1.621094.085937-94.101562 0-170.664062-76.5625-170.664062-170.664062 0-36.972657 11.945312-71.125 32-99.117188v-18.21875c0-11.796875-9.558594-21.332031-21.335938-21.332031-11.773437 0-21.332031 9.535156-21.332031 21.332031v23.042969c-72.257812 10.410156-128 72.554688-128 147.625v59.476562c0 42.21875-18.496094 82.070313-50.945312 109.503907-8.296876 7.105469-13.054688 17.429687-13.054688 28.351562 0 20.589844 16.746094 37.335938 37.332031 37.335938h352c20.589844 0 37.335938-16.746094 37.335938-37.335938 0-10.921875-4.757813-21.246093-13.269531-28.519531-16.8125-14.230469-29.78125-31.9375-38.445313-51.566406zm0 0"/><path d="m373.332031 0c-76.457031 0-138.664062 62.207031-138.664062 138.667969 0 76.457031 62.207031 138.664062 138.664062 138.664062 76.460938 0 138.667969-62.207031 138.667969-138.664062 0-76.460938-62.207031-138.667969-138.667969-138.667969zm21.335938 186.667969c0 8.832031-7.167969 16-16 16s-16-7.167969-16-16v-69.335938h-10.667969c-8.832031 0-16-7.167969-16-16s7.167969-16 16-16h26.667969c8.832031 0 16 7.167969 16 16zm0 0"/></svg>